<?xml version="1.0" encoding="UTF-8"?>
<!DOCTYPE svg PUBLIC "-//W3C//DTD SVG 1.1//EN"
 "http://www.w3.org/Graphics/SVG/1.1/DTD/svg11.dtd">
<svg xmlns="http://www.w3.org/2000/svg" version="1.1"
     width="180mm" height="25mm" viewBox="0 0 51 1" stroke="none"
     preserveAspectRatio="none" shape-rendering="crispEdges">
<defs>
    <pattern id="pat_2a024Z" width=".2" height=".2"
             patternUnits="userSpaceOnUse" patternTransform="scale(7.083,1)" >
        <path d="M.1,0h.1v.1h-.2v.1h.1z" fill="#999" opacity=".5" />
    </pattern>
</defs>
<rect width="51" height="1" fill="url(#pat_2a024Z)" />
<path d="M1,.43V1h-1V.57z" fill="#FFFFE0" />
<path d="M0,0h1v1h-1z" fill="#FFFFE0" fill-opacity="1" />
<path d="M2,.43V1h-1V.57z" fill="#FFFFE0" />
<path d="M1,0h1v1h-1z" fill="#FFFFE0" fill-opacity="1" />
<path d="M3,.43V1h-1V.57z" fill="#FFFFE0" />
<path d="M2,0h1v1h-1z" fill="#FFFFE0" fill-opacity="1" />
<path d="M4,.43V1h-1V.57z" fill="#FFFFE0" />
<path d="M3,0h1v1h-1z" fill="#FFFFE0" fill-opacity="1" />
<path d="M5,.43V1h-1V.57z" fill="#FFFFE0" />
<path d="M4,0h1v1h-1z" fill="#FFFFE0" fill-opacity="1" />
<path d="M6,.43V1h-1V.57z" fill="#FFFFE0" />
<path d="M5,0h1v1h-1z" fill="#FFFFE0" fill-opacity="1" />
<path d="M7,.43V1h-1V.57z" fill="#FFFFE0" />
<path d="M6,0h1v1h-1z" fill="#FFFFE0" fill-opacity="1" />
<path d="M8,.43V1h-1V.57z" fill="#FFFFE0" />
<path d="M7,0h1v1h-1z" fill="#FFFFE0" fill-opacity="1" />
<path d="M9,.43V1h-1V.57z" fill="#FFFFE0" />
<path d="M8,0h1v1h-1z" fill="#FFFFE0" fill-opacity="1" />
<path d="M10,.43V1h-1V.57z" fill="#FFFFE0" />
<path d="M9,0h1v1h-1z" fill="#FFFFE0" fill-opacity="1" />
<path d="M11,.43V1h-1V.57z" fill="#FFFFE0" />
<path d="M10,0h1v1h-1z" fill="#FFFFE0" fill-opacity="1" />
<path d="M12,.43V1h-1V.57z" fill="#FFFFE0" />
<path d="M11,0h1v1h-1z" fill="#FFFFE0" fill-opacity="1" />
<path d="M13,.43V1h-1V.57z" fill="#FFFFE0" />
<path d="M12,0h1v1h-1z" fill="#FFFFE0" fill-opacity="1" />
<path d="M14,.43V1h-1V.57z" fill="#FFFFE0" />
<path d="M13,0h1v1h-1z" fill="#FFFFE0" fill-opacity="1" />
<path d="M15,.43V1h-1V.57z" fill="#FFFFE0" />
<path d="M14,0h1v1h-1z" fill="#FFFFE0" fill-opacity="1" />
<path d="M16,.43V1h-1V.57z" fill="#FFFFE0" />
<path d="M15,0h1v1h-1z" fill="#FFFFE0" fill-opacity="1" />
<path d="M17,.43V1h-1V.57z" fill="#FFFFE0" />
<path d="M16,0h1v1h-1z" fill="#FFFFE0" fill-opacity="1" />
<path d="M18,.43V1h-1V.57z" fill="#FFFFE0" />
<path d="M17,0h1v1h-1z" fill="#FFFFE0" fill-opacity="1" />
<path d="M19,.43V1h-1V.57z" fill="#FFFFE0" />
<path d="M18,0h1v1h-1z" fill="#FFFFE0" fill-opacity="1" />
<path d="M20,.43V1h-1V.57z" fill="#FFFFE0" />
<path d="M19,0h1v1h-1z" fill="#FFFFE0" fill-opacity="1" />
<path d="M21,.43V1h-1V.57z" fill="#FFFFE0" />
<path d="M20,0h1v1h-1z" fill="#FFFFE0" fill-opacity="1" />
<path d="M22,.43V1h-1V.57z" fill="#FFFFE0" />
<path d="M21,0h1v1h-1z" fill="#FFFFE0" fill-opacity="1" />
<path d="M23,.43V1h-1V.57z" fill="#FFFFE0" />
<path d="M22,0h1v1h-1z" fill="#FFFFE0" fill-opacity="1" />
<path d="M24,.43V1h-1V.57z" fill="#FFFFE0" />
<path d="M23,0h1v1h-1z" fill="#FFFFE0" fill-opacity="1" />
<path d="M25,.43V1h-1V.57z" fill="#FFFFE0" />
<path d="M24,0h1v1h-1z" fill="#FFFFE0" fill-opacity="1" />
<path d="M26,.43V1h-1V.57z" fill="#FFFFE0" />
<path d="M25,0h1v1h-1z" fill="#FFFFE0" fill-opacity="1" />
<path d="M27,.43V1h-1V.57z" fill="#FFFFE0" />
<path d="M26,0h1v1h-1z" fill="#FFFFE0" fill-opacity="1" />
<path d="M28,.43V1h-1V.57z" fill="#FFFFE0" />
<path d="M27,0h1v1h-1z" fill="#FFFFE0" fill-opacity="1" />
<path d="M29,.43V1h-1V.57z" fill="#FFFFE0" />
<path d="M28,0h1v1h-1z" fill="#FFFFE0" fill-opacity="1" />
<path d="M30,.43V1h-1V.57z" fill="#FFFFE0" />
<path d="M29,0h1v1h-1z" fill="#FFFFE0" fill-opacity="1" />
<path d="M31,.43V1h-1V.57z" fill="#FFFFE0" />
<path d="M30,0h1v1h-1z" fill="#FFFFE0" fill-opacity="1" />
<path d="M32,.43V1h-1V.57z" fill="#FFFFE0" />
<path d="M31,0h1v1h-1z" fill="#FFFFE0" fill-opacity="1" />
<path d="M33,.43V1h-1V.57z" fill="#FFFFE0" />
<path d="M32,0h1v1h-1z" fill="#FFFFE0" fill-opacity="1" />
<path d="M34,.43V1h-1V.57z" fill="#FFFFE0" />
<path d="M33,0h1v1h-1z" fill="#FFFFE0" fill-opacity="1" />
<path d="M35,.43V1h-1V.57z" fill="#FFFFE0" />
<path d="M34,0h1v1h-1z" fill="#FFFFE0" fill-opacity="1" />
<path d="M36,.43V1h-1V.57z" fill="#FFFFE0" />
<path d="M35,0h1v1h-1z" fill="#FFFFE0" fill-opacity="1" />
<path d="M37,.43V1h-1V.57z" fill="#FFFFE0" />
<path d="M36,0h1v1h-1z" fill="#FFFFE0" fill-opacity="1" />
<path d="M38,.43V1h-1V.57z" fill="#FFFFE0" />
<path d="M37,0h1v1h-1z" fill="#FFFFE0" fill-opacity="1" />
<path d="M39,.43V1h-1V.57z" fill="#FFFFE0" />
<path d="M38,0h1v1h-1z" fill="#FFFFE0" fill-opacity="1" />
<path d="M40,.43V1h-1V.57z" fill="#FFFFE0" />
<path d="M39,0h1v1h-1z" fill="#FFFFE0" fill-opacity="1" />
<path d="M41,.43V1h-1V.57z" fill="#FFFFE0" />
<path d="M40,0h1v1h-1z" fill="#FFFFE0" fill-opacity="1" />
<path d="M42,.43V1h-1V.57z" fill="#FFFFE0" />
<path d="M41,0h1v1h-1z" fill="#FFFFE0" fill-opacity="1" />
<path d="M43,.43V1h-1V.57z" fill="#FFFFE0" />
<path d="M42,0h1v1h-1z" fill="#FFFFE0" fill-opacity="1" />
<path d="M44,.43V1h-1V.57z" fill="#FFFFE0" />
<path d="M43,0h1v1h-1z" fill="#FFFFE0" fill-opacity="1" />
<path d="M45,.43V1h-1V.57z" fill="#FFFFE0" />
<path d="M44,0h1v1h-1z" fill="#FFFFE0" fill-opacity="1" />
<path d="M46,.43V1h-1V.57z" fill="#FFFFE0" />
<path d="M45,0h1v1h-1z" fill="#FFFFE0" fill-opacity="1" />
<path d="M47,.43V1h-1V.57z" fill="#FFFFE0" />
<path d="M46,0h1v1h-1z" fill="#FFFFE0" fill-opacity="1" />
<path d="M48,.43V1h-1V.57z" fill="#FFFFE0" />
<path d="M47,0h1v1h-1z" fill="#FFFFE0" fill-opacity="1" />
<path d="M49,.43V1h-1V.57z" fill="#FFFFE0" />
<path d="M48,0h1v1h-1z" fill="#FFFFE0" fill-opacity="1" />
<path d="M50,.43V1h-1V.57z" fill="#FFFFE0" />
<path d="M49,0h1v1h-1z" fill="#FFFFE0" fill-opacity="1" />
<path d="M51,.43V1h-1V.57z" fill="#FFFFE0" />
<path d="M50,0h1v1h-1z" fill="#FFFFE0" fill-opacity="1" />
</svg>